<svg width="741" height="233" viewBox="0 0 741 233" fill="none" xmlns="http://www.w3.org/2000/svg">
<path d="M230.613 216C230.613 216 161.458 130.748 150.86 119.501L230.613 29C230.613 29 190.131 29 181.153 29C174.744 29 169.302 31.5646 164.828 36.6939L115.307 93.0286C115.307 107.279 115.307 138.653 115.307 145.973L170.814 208.306C175.409 213.435 180.851 216 187.139 216H230.613Z" fill="#FBBE36"/>
<path d="M0 216C0 216 69.193 130.748 79.7962 119.501L7.1831e-05 29C7.1831e-05 29 40.5038 29 49.4868 29C55.8995 29 61.3444 31.5646 65.8212 36.6939C69.004 40.3405 135.461 114.113 140.399 119.501C113.887 149.328 86.4024 178.484 59.8319 208.306C55.2341 213.435 49.7893 216 43.4975 216H0Z" fill="#509B3E"/>
<circle cx="242.376" cy="204.02" r="11.9489" fill="#F14824"/>
<path d="M303.555 127V52.94H338.285C344.112 52.94 348.865 54.0517 352.545 56.275C356.302 58.4983 359.1 61.5267 360.94 65.36C362.78 69.1933 363.7 73.5633 363.7 78.47C363.7 83.4533 362.627 87.8617 360.48 91.695C358.41 95.5283 355.42 98.5183 351.51 100.665C347.677 102.735 343.115 103.77 337.825 103.77H319.08V127H303.555ZM319.08 91.465H334.605C339.052 91.465 342.387 90.315 344.61 88.015C346.91 85.6383 348.06 82.4567 348.06 78.47C348.06 74.1767 346.987 70.9183 344.84 68.695C342.693 66.395 339.473 65.245 335.18 65.245H319.08V91.465ZM374.585 127V52.94H410.12C418.63 52.94 424.879 55.2017 428.865 59.725C432.852 64.1717 434.845 70.19 434.845 77.78C434.845 82.7633 433.542 87.0567 430.935 90.66C428.405 94.2633 424.802 96.87 420.125 98.48C421.352 99.4767 422.31 100.55 423 101.7C423.767 102.85 424.534 104.383 425.3 106.3L434.27 127H418.17L409.43 107.105C408.664 105.418 407.82 104.23 406.9 103.54C405.98 102.85 404.447 102.505 402.3 102.505H390.11V127H374.585ZM390.11 89.625H406.095C410.159 89.625 413.34 88.7433 415.64 86.98C417.94 85.14 419.09 82.0733 419.09 77.78C419.09 73.64 418.094 70.6117 416.1 68.695C414.107 66.7783 411.079 65.82 407.015 65.82H390.11V89.625ZM440.508 127L468.798 52.94H485.818L513.993 127H497.893L490.878 109.175H463.623L456.723 127H440.508ZM465.923 97.215H488.578L477.193 67.43L465.923 97.215ZM521.309 127L548.104 89.855L521.999 52.94H540.284L557.419 77.665L574.554 52.94H592.839L566.734 89.855L593.529 127H575.014L557.419 102.275L539.824 127H521.309ZM604.356 127L631.151 89.855L605.046 52.94H623.331L640.466 77.665L657.601 52.94H675.886L649.781 89.855L676.576 127H658.061L640.466 102.275L622.871 127H604.356ZM687.457 127V52.94H702.982V127H687.457ZM718.395 127V52.94H733.92V127H718.395Z" fill="#FBBE36"/>
<path d="M391.158 204.74C383.166 204.74 377.098 202.643 372.954 198.45C368.81 194.257 366.738 188.435 366.738 180.986C366.738 173.093 368.835 166.901 373.028 162.412C377.221 157.873 383.462 155.604 391.75 155.604C394.611 155.604 397.201 155.777 399.52 156.122C401.839 156.418 404.034 156.911 406.106 157.602V166.186C404.034 165.446 401.839 164.928 399.52 164.632C397.251 164.287 394.907 164.114 392.49 164.114C386.817 164.114 382.796 165.52 380.428 168.332C378.06 171.095 376.876 175.313 376.876 180.986C376.876 191.198 381.686 196.304 391.306 196.304C392.983 196.304 394.611 196.181 396.19 195.934C397.818 195.638 399.249 195.268 400.482 194.824V183.724H389.382V177.36H408.918V200.67C407.29 201.706 405.021 202.643 402.11 203.482C399.199 204.321 395.549 204.74 391.158 204.74ZM423.241 204V156.344H433.231V196.304H456.689V204H423.241ZM489.829 204.74C474.388 204.74 466.667 196.625 466.667 180.394C466.667 171.662 468.616 165.347 472.513 161.45C476.41 157.553 482.182 155.604 489.829 155.604C497.476 155.604 503.248 157.553 507.145 161.45C511.042 165.347 512.991 171.662 512.991 180.394C512.991 196.625 505.27 204.74 489.829 204.74ZM489.829 196.23C494.318 196.23 497.599 194.947 499.671 192.382C501.792 189.767 502.853 185.771 502.853 180.394C502.853 174.425 501.792 170.231 499.671 167.814C497.599 165.347 494.318 164.114 489.829 164.114C485.34 164.114 482.034 165.347 479.913 167.814C477.841 170.231 476.805 174.425 476.805 180.394C476.805 185.771 477.841 189.767 479.913 192.382C482.034 194.947 485.34 196.23 489.829 196.23ZM527.361 204V156.344H551.485C556.271 156.344 559.823 157.479 562.141 159.748C564.509 161.968 565.693 165.125 565.693 169.22C565.693 171.785 565.2 173.931 564.213 175.658C563.227 177.335 561.895 178.643 560.217 179.58C562.437 180.271 564.189 181.43 565.471 183.058C566.803 184.637 567.469 186.98 567.469 190.088C567.469 194.676 566.162 198.154 563.547 200.522C560.982 202.841 557.257 204 552.373 204H527.361ZM537.351 176.102H549.635C552.053 176.102 553.779 175.584 554.815 174.548C555.851 173.463 556.369 171.958 556.369 170.034C556.369 167.913 555.827 166.334 554.741 165.298C553.705 164.262 551.757 163.744 548.895 163.744H537.351V176.102ZM537.351 196.674H550.005C552.521 196.674 554.371 196.156 555.555 195.12C556.739 194.084 557.331 192.259 557.331 189.644C557.331 187.523 556.739 185.944 555.555 184.908C554.421 183.872 552.349 183.354 549.339 183.354H537.351V196.674ZM577.725 204L595.929 156.344H606.881L625.011 204H614.651L610.137 192.53H592.599L588.159 204H577.725ZM594.079 184.834H608.657L601.331 165.668L594.079 184.834ZM639.359 204V156.344H649.349V196.304H672.807V204H639.359Z" fill="#509B3E"/>
</svg>
