<svg width="661" height="468" viewBox="0 0 661 468" fill="none" xmlns="http://www.w3.org/2000/svg">
<g clip-path="url(#clip0_2440_10052)">
<path d="M557.935 126C592.729 126 620.935 97.7939 620.935 63C620.935 28.2061 592.729 0 557.935 0C523.141 0 494.935 28.2061 494.935 63C494.935 97.7939 523.141 126 557.935 126Z" fill="#FF6884"/>
<path d="M464.993 456.499L333.94 451.97L330.108 132.469C330.016 124.714 333.107 117.12 338.592 111.636L474.712 35.515C485.368 24.8603 502.14 24.0902 513.726 33.7284L596.333 102.447C603.072 108.053 606.878 116.295 606.775 125.061L603.937 365.342L639.84 415.208L639.917 415.313L646 468.037L464.993 456.499Z" fill="#F1F2F2"/>
<path d="M476.935 109.908V95.0922C476.935 91.1815 480.116 87.9999 484.027 87.9999H504.843C508.753 87.9999 511.935 91.1815 511.935 95.0922V109.908C511.935 113.818 508.753 117 504.843 117H484.027C480.116 117 476.935 113.818 476.935 109.908Z" fill="#A6CE2E"/>
<path d="M432.935 224.908V170.092C432.935 166.182 436.116 163 440.027 163H470.843C474.753 163 477.935 166.182 477.935 170.092V224.908C477.935 228.818 474.753 232 470.843 232H440.027C436.116 232 432.935 228.818 432.935 224.908Z" fill="#3F3D56"/>
<path d="M358.274 288.589V233.773C358.274 229.863 361.456 226.681 365.367 226.681H396.183C400.093 226.681 403.274 229.863 403.274 233.773V288.589C403.274 292.499 400.093 295.681 396.183 295.681H365.367C361.456 295.681 358.274 292.499 358.274 288.589Z" fill="#3F3D56"/>
<path d="M502.591 353.219C498.866 353.087 495.863 350.064 495.753 346.339L494.195 293.357C494.128 291.096 495.107 288.994 496.881 287.589C498.654 286.184 500.925 285.716 503.112 286.296L504.67 286.712C507.769 287.539 509.934 290.356 509.934 293.564V346.131C509.934 348.072 509.165 349.885 507.768 351.233C506.433 352.522 504.695 353.223 502.849 353.223C502.763 353.223 502.677 353.222 502.591 353.219Z" fill="#3F3D56"/>
<path d="M437.935 345.908V290.934C437.935 287.053 440.974 283.938 444.854 283.843L472.862 283.16C476.745 283.106 480.011 286.153 480.125 290.045L481.738 345.702C481.794 347.635 481.083 349.463 479.735 350.85C478.389 352.236 476.582 353 474.649 353H445.027C441.116 353 437.935 349.818 437.935 345.908Z" fill="#3F3D56"/>
<path d="M603.482 383.473L625.435 422.5L627.955 466.39L645.435 467.5L639.435 415.5L603.435 365.5C600.328 371.093 600.346 377.897 603.482 383.473Z" fill="#CCCCCC"/>
<path d="M627.252 453.828L556.004 454.802L556.018 455.802L627.266 454.828L627.252 453.828Z" fill="#3F3D56"/>
<path d="M622.931 445.003L555.376 445.53L555.384 446.53L622.939 446.003L622.931 445.003Z" fill="#3F3D56"/>
<path d="M619.425 435.984L554.806 437.246L554.825 438.246L619.445 436.984L619.425 435.984Z" fill="#3F3D56"/>
<path d="M617.419 427.015L555.363 429.075L555.396 430.075L617.452 428.015L617.419 427.015Z" fill="#3F3D56"/>
<path d="M614.418 419.029L554.796 421.125L554.831 422.125L614.453 420.029L614.418 419.029Z" fill="#3F3D56"/>
<path d="M610.435 412H552.363V413H610.435V412Z" fill="#3F3D56"/>
<path d="M607.428 404.983L550.992 405.645L551.004 406.645L607.44 405.983L607.428 404.983Z" fill="#3F3D56"/>
<path d="M604.418 397.989L549.732 399.805L549.766 400.805L604.451 398.989L604.418 397.989Z" fill="#3F3D56"/>
<path d="M602.427 391.026L548.426 391.975L548.443 392.975L602.444 392.026L602.427 391.026Z" fill="#3F3D56"/>
<path d="M598.419 384.1L546.713 385.715L546.744 386.715L598.45 385.1L598.419 384.1Z" fill="#3F3D56"/>
<path d="M596.43 378L545.18 378.501L545.189 379.501L596.439 379L596.43 378Z" fill="#3F3D56"/>
<path d="M541.435 357.408V289.593C541.435 285.682 544.616 282.5 548.527 282.5H581.343C585.253 282.5 588.435 285.682 588.435 289.593V357.408C588.435 361.318 585.253 364.5 581.343 364.5H548.527C544.616 364.5 541.435 361.318 541.435 357.408Z" fill="#A6CE2E"/>
<path d="M464.993 456.499L346.903 452.799L346.435 452.769V407.812C346.435 402.126 411.06 397.5 416.746 397.5H474.124C479.809 397.5 484.435 402.126 484.435 407.812V456.5H483.935L464.993 456.499Z" fill="#CCCCCC"/>
<path d="M545.435 234.408V182.592C545.435 178.682 548.616 175.5 552.527 175.5H563.343C567.253 175.5 570.435 178.682 570.435 182.592V234.408C570.435 238.318 567.253 241.5 563.343 241.5H552.527C548.616 241.5 545.435 238.318 545.435 234.408Z" fill="#3F3D56"/>
<path d="M556.435 461.5L553.435 417.5L544.435 375.5L541.935 364C536.798 360.507 529.88 364.393 530.19 370.597L530.435 375.5L539.435 417.5L542.435 461.5" fill="#CCCCCC"/>
<path d="M380.121 396.866C377.271 419.196 366.791 439.626 355.611 459.306C355.241 459.976 354.861 460.636 354.471 461.306H238.271C235.921 460.696 233.601 460.026 231.291 459.306C218.167 455.31 205.776 449.215 194.601 441.256C151.851 410.456 135.401 352.256 142.831 300.106C147.451 267.706 161.671 234.626 189.361 217.176C203.981 207.946 222.761 204.946 239.591 208.376C240.032 208.456 240.471 208.556 240.921 208.646C255.401 211.906 268.301 220.006 275.641 233.056C288.841 256.506 280.981 285.556 274.492 311.656C268.021 337.756 264.511 368.996 283.291 388.246C277.091 369.996 283.211 348.226 298.021 335.886C309.211 326.576 324.791 323.086 339.001 325.976C340.361 326.266 341.701 326.596 343.021 326.996C346.212 327.93 349.287 329.218 352.191 330.836C374.341 343.206 383.311 371.696 380.121 396.866Z" fill="#607A13"/>
<path d="M311.221 459.306C314.441 460.056 317.671 460.716 320.921 461.306H303.351C301.051 460.686 298.76 460.026 296.491 459.306C291.501 457.746 286.587 455.956 281.751 453.936C262.351 445.796 244.481 433.576 230.961 417.316C224.349 409.438 218.949 400.618 214.941 391.146C210.594 380.441 207.832 369.159 206.741 357.656C204.291 334.056 206.791 309.806 211.461 286.626C216.28 262.601 224.059 239.267 234.621 217.156C235.891 214.506 237.204 211.873 238.561 209.256C238.654 209.041 238.795 208.849 238.974 208.697C239.152 208.544 239.363 208.435 239.591 208.376C240.052 208.287 240.531 208.384 240.921 208.646C241.389 208.915 241.736 209.353 241.891 209.87C242.045 210.388 241.995 210.945 241.751 211.426C230.861 232.662 222.607 255.148 217.171 278.386C211.851 301.056 208.831 324.776 209.861 348.086C210.841 369.866 216.531 391.286 229.441 409.096C241.231 425.356 257.511 438.176 275.521 446.906C286.92 452.36 298.895 456.519 311.221 459.306Z" fill="#A6CE2E"/>
<path d="M349.781 461.306H344.601C344.021 460.646 343.461 459.976 342.911 459.306C331.112 444.97 323.119 427.89 319.671 409.646C315.483 386.878 318.741 363.368 328.961 342.596C331.812 336.772 335.172 331.21 339.001 325.976C340.361 326.266 341.701 326.596 343.021 326.996C332.949 340.34 326.175 355.876 323.251 372.336C320.642 387.76 321.51 403.572 325.79 418.618C330.07 433.664 337.655 447.565 347.991 459.306C348.571 459.976 349.171 460.646 349.781 461.306Z" fill="#A6CE2E"/>
<path d="M419.271 462.114C420.024 468.007 422.79 473.399 425.74 478.593C425.838 478.77 425.938 478.944 426.041 479.121H456.708C457.329 478.96 457.941 478.783 458.55 478.593C462.014 477.539 465.284 475.93 468.234 473.83C479.516 465.701 483.858 450.341 481.897 436.577C480.677 428.027 476.924 419.296 469.617 414.691C465.648 412.274 460.914 411.444 456.36 412.368C456.244 412.389 456.128 412.416 456.009 412.439C454.113 412.806 452.317 413.569 450.738 414.68C449.158 415.79 447.832 417.222 446.846 418.882C443.362 425.071 445.436 432.737 447.149 439.626C448.857 446.514 449.783 454.759 444.827 459.839C445.553 457.715 445.701 455.435 445.254 453.234C444.808 451.034 443.783 448.992 442.286 447.318C440.789 445.645 438.873 444.4 436.735 443.713C434.598 443.025 432.316 442.919 430.124 443.405C429.765 443.482 429.411 443.569 429.063 443.674C428.221 443.921 427.409 444.261 426.643 444.688C420.797 447.952 418.43 455.471 419.271 462.114Z" fill="#607A13"/>
<path d="M437.455 478.593C436.606 478.791 435.753 478.965 434.896 479.121H439.532C440.14 478.957 440.744 478.783 441.343 478.593C442.66 478.182 443.957 477.709 445.233 477.176C450.411 475.074 455.008 471.759 458.638 467.511C460.383 465.432 461.808 463.104 462.866 460.605C464.013 457.779 464.742 454.802 465.03 451.766C465.556 445.49 465.136 439.171 463.784 433.02C462.512 426.679 460.459 420.521 457.672 414.685C457.336 413.986 456.99 413.291 456.632 412.6C456.607 412.544 456.57 412.493 456.523 412.453C456.476 412.413 456.42 412.384 456.36 412.368C456.238 412.345 456.112 412.37 456.009 412.439C455.885 412.51 455.794 412.626 455.753 412.763C455.712 412.899 455.725 413.046 455.79 413.173C458.664 418.778 460.842 424.712 462.277 430.845C463.755 436.86 464.404 443.049 464.206 449.24C464.101 454.998 462.304 460.598 459.039 465.342C455.864 469.614 451.687 473.041 446.877 475.321C443.869 476.76 440.708 477.858 437.455 478.593Z" fill="#A6CE2E"/>
<path d="M427.278 479.121H428.645C428.799 478.947 428.946 478.77 429.091 478.593C432.205 474.81 434.315 470.302 435.225 465.487C436.33 459.478 435.47 453.273 432.773 447.791C432.021 446.254 431.134 444.786 430.123 443.405C429.765 443.482 429.411 443.569 429.062 443.674C431.72 447.196 433.508 451.296 434.28 455.64C434.969 459.711 434.74 463.884 433.61 467.855C432.48 471.826 430.479 475.494 427.751 478.593C427.598 478.77 427.439 478.947 427.278 479.121Z" fill="#A6CE2E"/>
</g>
<defs>
<clipPath id="clip0_2440_10052">
<rect width="661" height="468" fill="white"/>
</clipPath>
</defs>
</svg>
