<svg width="288" height="362" viewBox="0 0 288 362" fill="none" xmlns="http://www.w3.org/2000/svg">
<path d="M180.862 32.1201C181.819 29.2578 185.141 28.1537 187.904 28.0679C191.789 27.9474 195.582 29.3246 199.479 28.7091C206.548 27.5925 210.962 20.7913 212.337 14.2804C213.254 9.93776 213.173 5.48599 213.07 1.07317C213.076 0.903019 213.033 0.734619 212.946 0.588252C212.859 0.441884 212.731 0.323778 212.578 0.248126C212.425 0.172475 212.254 0.142508 212.085 0.16183C211.915 0.181151 211.755 0.248931 211.623 0.357031C208.797 2.2821 206.765 5.16401 205.903 8.4694L207.596 8.8189L208.486 1.1115C208.498 0.920567 208.448 0.730829 208.343 0.57095C208.238 0.41107 208.083 0.28972 207.903 0.225209C205.251 -0.696777 203.04 1.3839 201.598 3.35234C200.85 4.37174 200.133 5.48241 199.023 6.14613C197.867 6.77548 196.543 7.03136 195.235 6.87854C192.533 6.6836 189.972 5.66463 187.326 5.16016C184.896 4.70856 182.417 4.57099 179.952 4.75089C175.073 5.09278 170.344 6.58213 166.152 9.09727C161.964 11.616 158.131 15.2157 155.908 19.6107C154.639 22.1199 153.95 25.0082 154.648 27.7896C154.927 29.0531 155.498 30.2337 156.317 31.2368C157.135 32.24 158.178 33.0377 159.361 33.566C160.398 33.9996 160.963 32.3527 159.932 31.9221C157.97 31.1018 156.724 29.1785 156.288 27.1532C155.79 24.8386 156.4 22.4438 157.462 20.3708C159.531 16.3338 163.072 12.9767 166.932 10.6535C170.861 8.29058 175.284 6.86564 179.856 6.48978C182.092 6.312 184.342 6.40979 186.554 6.78095C189.036 7.19384 191.411 8.08058 193.898 8.47209C196.628 8.90174 199.461 8.52382 201.414 6.40329C202.851 4.84361 204.627 0.928748 207.331 1.86915L206.748 0.982853L205.857 8.69025C205.746 9.65461 207.301 10.0033 207.55 9.03975C208.327 6.02306 210.187 3.39671 212.778 1.66066L211.331 0.944523C211.503 8.26146 211.657 16.3483 206.771 22.344C204.675 24.9162 201.726 26.7979 198.374 27.0977C194.598 27.4355 190.891 26.0709 187.11 26.386C183.84 26.6586 180.322 28.2365 179.215 31.5497C178.86 32.6134 180.507 33.1832 180.862 32.1201Z" fill="#2F2E41"/>
<path d="M171.652 360.286H158.562C157.034 360.284 155.569 359.675 154.488 358.593C153.407 357.51 152.8 356.042 152.798 354.511V245.213C152.8 243.682 153.407 242.214 154.488 241.132C155.569 240.049 157.034 239.44 158.562 239.438H171.652C173.18 239.44 174.645 240.049 175.726 241.132C176.806 242.214 177.414 243.682 177.416 245.213V354.511C177.414 356.042 176.806 357.51 175.726 358.593C174.645 359.675 173.18 360.284 171.652 360.286Z" fill="#A6CE2E"/>
<path d="M190.497 213.488L180.258 205.319C179.711 204.883 179.084 204.559 178.412 204.366C177.741 204.173 177.038 204.114 176.343 204.193C175.649 204.272 174.977 204.487 174.366 204.826C173.755 205.165 173.216 205.622 172.781 206.169L104.828 291.673C104.393 292.221 104.07 292.849 103.877 293.522C103.684 294.195 103.625 294.899 103.704 295.595C103.783 296.29 103.997 296.964 104.336 297.576C104.674 298.189 105.13 298.728 105.677 299.164L105.954 299.386L139.01 351.935C139.383 352.527 139.868 353.04 140.438 353.444C141.009 353.848 141.653 354.136 142.335 354.291C143.016 354.446 143.721 354.465 144.41 354.347C145.099 354.228 145.758 353.975 146.349 353.602L157.422 346.61C158.616 345.856 159.462 344.658 159.774 343.279C160.086 341.901 159.839 340.454 159.087 339.258L131.809 295.894L191.346 220.979C191.781 220.431 192.104 219.803 192.297 219.13C192.49 218.457 192.549 217.753 192.47 217.057C192.391 216.362 192.177 215.688 191.838 215.076C191.5 214.464 191.044 213.924 190.497 213.488Z" fill="#A6CE2E"/>
<path d="M180.359 278.62H117.394C115.396 278.618 113.48 277.822 112.067 276.406C110.654 274.99 109.859 273.07 109.856 271.068V255.964C109.859 253.962 110.654 252.042 112.067 250.626C113.48 249.21 115.396 248.414 117.394 248.412H180.359C182.357 248.414 184.273 249.21 185.686 250.626C187.1 252.042 187.895 253.962 187.897 255.964V271.068C187.895 273.07 187.1 274.99 185.686 276.406C184.273 277.822 182.357 278.618 180.359 278.62Z" fill="#CCCCCC"/>
<path d="M287.36 359.7H0V361.691H287.36V359.7Z" fill="#3F3D56"/>
<path d="M158.178 111.662C184.39 111.662 205.64 90.3729 205.64 64.111C205.64 37.8491 184.39 16.5597 158.178 16.5597C131.965 16.5597 110.716 37.8491 110.716 64.111C110.716 90.3729 131.965 111.662 158.178 111.662Z" fill="#A6CE2E"/>
<path d="M207.077 257.618H109.471C107.943 257.617 106.478 257.008 105.397 255.925C104.317 254.842 103.709 253.374 103.707 251.843L123.226 151.793C123.25 143.217 126.666 135.001 132.726 128.944C138.786 122.887 146.995 119.484 155.555 119.48H161.889C170.461 119.489 178.678 122.905 184.739 128.977C190.8 135.049 194.209 143.282 194.218 151.87L212.834 251.762C212.843 252.526 212.701 253.284 212.416 253.993C212.131 254.702 211.709 255.347 211.173 255.892C210.638 256.436 210.001 256.869 209.298 257.165C208.595 257.462 207.84 257.616 207.077 257.618Z" fill="#2F2E41"/>
<path d="M121.183 79.9879C118.251 79.9054 114.6 79.803 111.793 77.7458C110.956 77.1083 110.268 76.2951 109.778 75.3632C109.287 74.4313 109.006 73.4032 108.955 72.3511C108.904 71.6033 109.026 70.8538 109.312 70.1612C109.599 69.4687 110.041 68.8518 110.604 68.3589C112.073 67.1156 114.217 66.8245 116.526 67.5047L114.133 49.9783L115.891 49.7371L118.704 70.342L117.237 69.6669C115.535 68.8847 113.2 68.4869 111.749 69.716C111.393 70.0371 111.115 70.4362 110.938 70.8824C110.761 71.3285 110.689 71.8095 110.727 72.2881C110.77 73.0713 110.981 73.8359 111.346 74.5301C111.71 75.2243 112.219 75.8318 112.839 76.3111C115.024 77.9119 117.934 78.1185 121.233 78.2113L121.183 79.9879Z" fill="#2F2E41"/>
<path d="M135.595 51.4901H126.043V53.2671H135.595V51.4901Z" fill="#2F2E41"/>
<path d="M68.525 217.114L76.9043 227.189C78.7855 229.451 82.1407 229.756 84.3983 227.871L168.207 157.903C170.464 156.018 170.769 152.657 168.888 150.395L160.509 140.321C158.628 138.059 155.272 137.753 153.015 139.638L69.2065 209.606C66.9489 211.491 66.6438 214.852 68.525 217.114Z" fill="#A6CE2E"/>
<path d="M173.082 155.817L138.514 188.728C137.436 189.755 136.005 190.326 134.518 190.323C133.03 190.321 131.601 189.744 130.527 188.714L114.888 173.719C114.27 173.127 113.791 172.404 113.485 171.604C113.18 170.804 113.054 169.946 113.119 169.092C113.184 168.238 113.437 167.409 113.859 166.664C114.282 165.919 114.864 165.278 115.564 164.785L156.56 135.946C157.74 134.964 159.26 134.491 160.787 134.63C162.314 134.768 163.725 135.507 164.709 136.685L173.824 147.644C174.806 148.827 175.279 150.352 175.14 151.884C175.001 153.417 174.261 154.831 173.082 155.817Z" fill="#2F2E41"/>
<path d="M47.1611 192.387C51.5691 192.387 55.1425 188.807 55.1425 184.391C55.1425 179.974 51.5691 176.394 47.1611 176.394C42.7531 176.394 39.1797 179.974 39.1797 184.391C39.1797 188.807 42.7531 192.387 47.1611 192.387Z" fill="#E6E6E6"/>
</svg>
