<svg width="324" height="380" viewBox="0 0 324 380" fill="none" xmlns="http://www.w3.org/2000/svg">
<path d="M43.7876 379.569C43.9138 379.363 46.888 374.397 47.9191 364.085C48.8649 354.624 48.2567 338.677 39.9863 316.432C24.3182 274.291 43.5971 240.289 43.794 239.95L42.8429 239.399C42.793 239.485 37.8183 248.154 34.8795 261.958C30.9965 280.26 32.4104 299.289 38.9557 316.815C54.5969 358.885 42.9685 378.8 42.8493 378.997L43.7876 379.569Z" fill="#F1F1F1"/>
<path d="M49.9142 237.476C45.968 237.476 42.7689 234.277 42.7689 230.331C42.7689 226.384 45.968 223.185 49.9142 223.185C53.8605 223.185 57.0596 226.384 57.0596 230.331C57.0596 234.277 53.8605 237.476 49.9142 237.476Z" fill="#F1F1F1"/>
<path d="M27.379 263.859C23.4328 263.859 20.2336 260.66 20.2336 256.713C20.2336 252.767 23.4328 249.568 27.379 249.568C31.3253 249.568 34.5244 252.767 34.5244 256.713C34.5244 260.66 31.3253 263.859 27.379 263.859Z" fill="#F1F1F1"/>
<path d="M42.7687 281.447C38.8224 281.447 35.6233 278.248 35.6233 274.302C35.6233 270.356 38.8224 267.156 42.7687 267.156C46.715 267.156 49.9141 270.356 49.9141 274.302C49.9141 278.248 46.715 281.447 42.7687 281.447Z" fill="#F1F1F1"/>
<path d="M24.0812 296.287C20.135 296.287 16.9358 293.088 16.9358 289.142C16.9358 285.196 20.135 281.997 24.0812 281.997C28.0275 281.997 31.2266 285.196 31.2266 289.142C31.2266 293.088 28.0275 296.287 24.0812 296.287Z" fill="#F1F1F1"/>
<path d="M48.2658 319.372C44.3195 319.372 41.1204 316.173 41.1204 312.227C41.1204 308.281 44.3195 305.082 48.2658 305.082C52.2121 305.082 55.4111 308.281 55.4111 312.227C55.4111 316.173 52.2121 319.372 48.2658 319.372Z" fill="#F1F1F1"/>
<path d="M39.471 379.832C39.471 379.832 46.6163 362.244 25.1802 349.052L39.471 379.832Z" fill="#F1F1F1"/>
<path d="M48.2585 379.513C48.2585 379.513 51.5104 360.809 76.6797 360.97L48.2585 379.513Z" fill="#F1F1F1"/>
<path d="M259.055 152.1C257.971 152.318 256.853 152.296 255.779 152.035C254.705 151.774 253.702 151.28 252.839 150.59C251.977 149.899 251.276 149.027 250.787 148.036C250.297 147.045 250.031 145.959 250.007 144.854L192.891 91.0955L205.742 80.844L257.941 137.047C259.8 137.129 261.564 137.89 262.899 139.187C264.234 140.483 265.047 142.223 265.184 144.079C265.322 145.935 264.773 147.776 263.644 149.254C262.514 150.733 260.881 151.745 259.055 152.1Z" fill="#FFB7B7"/>
<path d="M200.984 99.7851L212.096 86.7628C212.412 86.3923 212.645 85.958 212.778 85.4895C212.911 85.021 212.942 84.5292 212.868 84.0478C212.794 83.5664 212.617 83.1066 212.349 82.6997C212.082 82.2928 211.729 81.9484 211.316 81.6899L196.85 72.634C194.945 71.0273 192.481 70.2415 189.998 70.4489C187.514 70.6564 185.214 71.84 183.602 73.7404C181.99 75.6408 181.198 78.1028 181.398 80.5867C181.599 83.0706 182.776 85.3737 184.672 86.991L195.852 99.8132C196.172 100.18 196.568 100.474 197.012 100.674C197.455 100.875 197.937 100.977 198.424 100.974C198.912 100.972 199.392 100.864 199.834 100.659C200.276 100.454 200.668 100.156 200.984 99.7851Z" fill="#CBCBCB"/>
<path d="M230.866 365.057L244.83 365.056L251.474 311.192L230.863 311.193L230.866 365.057Z" fill="#FFB7B7"/>
<path d="M227.303 378.594L272.332 378.592V378.022C272.332 373.374 270.485 368.917 267.198 365.63C263.912 362.343 259.454 360.497 254.806 360.496H254.805L227.303 360.497L227.303 378.594Z" fill="#2F2E41"/>
<path d="M119.235 365.057L133.2 365.056L139.844 311.192L119.232 311.193L119.235 365.057Z" fill="#FFB7B7"/>
<path d="M115.674 378.594L160.702 378.592V378.022C160.702 373.374 158.855 368.917 155.568 365.63C152.282 362.343 147.824 360.497 143.176 360.496H143.175L115.673 360.497L115.674 378.594Z" fill="#2F2E41"/>
<path d="M156.799 128.338L142.722 76.3305L160.984 66.0659H186.474L196.388 76.6727C196.388 76.6727 212.952 88.197 208.943 100.966L202.475 130.049L212.367 176.239L262.205 245.354L274.003 313.244L227.562 325.418L177.343 226.536L152.995 336.025L107.697 333.747L123.306 200.991C123.306 200.991 127.756 160.549 151.079 135.298L156.799 128.338Z" fill="#2F2E41"/>
<path d="M127.728 174.353C126.943 173.575 126.338 172.635 125.956 171.598C125.573 170.561 125.423 169.453 125.516 168.352C125.608 167.251 125.941 166.183 126.49 165.224C127.04 164.265 127.793 163.439 128.697 162.803L139.618 89.1193L155.295 94.0692L139.602 165.034C140.571 166.623 140.922 168.512 140.591 170.343C140.26 172.173 139.268 173.819 137.805 174.968C136.341 176.117 134.507 176.688 132.649 176.575C130.792 176.462 129.041 175.671 127.728 174.353Z" fill="#FFB7B7"/>
<path d="M136.919 100.683L153.925 102.644C154.409 102.7 154.899 102.651 155.363 102.5C155.826 102.349 156.251 102.101 156.609 101.771C156.968 101.441 157.251 101.037 157.439 100.588C157.628 100.139 157.717 99.6547 157.701 99.1679L157.151 82.1099C157.422 79.6326 156.7 77.1488 155.143 75.203C153.586 73.2572 151.321 72.0083 148.844 71.7301C146.367 71.4519 143.882 72.1671 141.932 73.7189C139.982 75.2707 138.727 77.5325 138.442 80.0082L134.033 96.4389C133.907 96.9094 133.884 97.4015 133.965 97.8818C134.047 98.362 134.231 98.8191 134.504 99.2219C134.778 99.6247 135.136 99.9638 135.552 100.216C135.969 100.468 136.435 100.628 136.919 100.683Z" fill="#CBCBCB"/>
<path d="M202.234 51.276V29.3632C202.234 21.5756 199.141 14.107 193.634 8.60029C188.127 3.09363 180.659 0 172.871 0C165.083 0 157.614 3.09363 152.108 8.60029C146.601 14.107 143.507 21.5756 143.507 29.3632V51.276C143.509 52.3217 143.925 53.3243 144.664 54.0637C145.403 54.8032 146.406 55.2191 147.452 55.2203H198.29C199.336 55.2191 200.338 54.8032 201.078 54.0637C201.817 53.3243 202.233 52.3217 202.234 51.276Z" fill="#2F2E41"/>
<path d="M178.904 54.7102C167.015 54.7102 157.376 45.0717 157.376 33.1821C157.376 21.2925 167.015 11.6541 178.904 11.6541C190.794 11.6541 200.433 21.2925 200.433 33.1821C200.433 45.0717 190.794 54.7102 178.904 54.7102Z" fill="#FFB7B7"/>
<path d="M209.181 31.1162C209.174 24.9579 206.724 19.054 202.37 14.6994C198.015 10.3449 192.111 7.8955 185.953 7.88855H181.57C175.412 7.89551 169.508 10.3449 165.153 14.6995C160.799 19.054 158.349 24.958 158.342 31.1162V31.5544H167.604L170.763 22.7088L171.395 31.5544H176.182L177.775 27.0914L178.094 31.5544H209.181V31.1162Z" fill="#2F2E41"/>
<path d="M181.023 57.6844C181.458 57.0956 181.718 56.3959 181.772 55.666C181.827 54.9361 181.674 54.2056 181.332 53.5586C176.688 44.725 170.185 28.4025 178.816 18.3363L179.437 17.613H154.379V55.2329L177.142 59.2491C177.372 59.2899 177.606 59.3105 177.84 59.3107C178.461 59.3107 179.074 59.1633 179.627 58.8806C180.181 58.5978 180.659 58.1879 181.023 57.6844Z" fill="#2F2E41"/>
<path d="M0.845367 379.682H323.028C323.253 379.682 323.468 379.592 323.626 379.434C323.785 379.275 323.874 379.06 323.874 378.836C323.874 378.612 323.785 378.397 323.626 378.238C323.468 378.079 323.253 377.99 323.028 377.99H0.845367C0.621094 377.99 0.406036 378.079 0.247437 378.238C0.0888367 378.397 -0.000244141 378.612 -0.000244141 378.836C-0.000244141 379.06 0.0888367 379.275 0.247437 379.434C0.406036 379.592 0.621094 379.682 0.845367 379.682Z" fill="#CBCBCB"/>
<path d="M287.301 122.425L269.358 118.27C268.492 118.069 267.584 118.169 266.782 118.553C265.981 118.937 265.334 119.583 264.948 120.383L246.568 158.498C246.369 158.914 246.263 159.368 246.258 159.829C246.252 160.29 246.347 160.747 246.536 161.167C246.725 161.588 247.003 161.962 247.352 162.264C247.7 162.566 248.11 162.789 248.554 162.916L266.789 168.097C267.765 168.374 268.809 168.287 269.726 167.851C270.643 167.415 271.37 166.661 271.771 165.729L283.499 138.488L283.857 138.686L286.089 133.525L285.718 133.335C286.104 131.039 291.954 123.503 287.301 122.425Z" fill="#3F3D56"/>
<path d="M271.52 119.683C269.801 119.203 267.269 118.542 266.369 120.676L248.429 158.547C248.326 158.765 248.272 159.002 248.269 159.243C248.267 159.484 248.316 159.723 248.414 159.944C248.511 160.164 248.656 160.361 248.836 160.52C249.017 160.68 249.229 160.799 249.46 160.869L267.567 166.333C270.599 169.791 285.96 126.061 287.164 125.605C287.273 125.349 287.325 125.073 287.315 124.795C287.306 124.517 287.236 124.244 287.11 123.996C286.985 123.748 286.806 123.531 286.588 123.359C286.369 123.187 286.116 123.065 285.845 123.001C285.093 123.004 283.326 121.963 282.864 122.993C282.877 124.226 273.048 121.074 272.553 121.207C272.221 121.13 271.929 120.93 271.738 120.648C271.546 120.365 271.468 120.021 271.52 119.683Z" fill="#A6CE2E"/>
</svg>
