<svg width="574" height="505" viewBox="0 0 574 505" fill="none" xmlns="http://www.w3.org/2000/svg">
<g clip-path="url(#clip0_2441_10077)">
<path d="M368.629 455.988L367.221 436.435C357.995 431.832 347.783 429.546 337.472 429.776C351.979 440.969 350.817 463.34 360.864 478.65C364.034 483.402 368.234 487.38 373.154 490.29C378.074 493.201 383.587 494.969 389.284 495.463L401.358 502.396C402.739 493.285 402.125 483.982 399.557 475.131C396.99 466.279 392.531 458.088 386.487 451.122C383.057 447.247 379.153 443.819 374.865 440.919C372.226 448.482 368.629 455.988 368.629 455.988Z" fill="#F2F2F2"/>
<path d="M296.715 505H573.115C573.35 505 573.575 504.907 573.741 504.741C573.907 504.575 574 504.351 574 504.116C574 503.882 573.907 503.657 573.741 503.491C573.575 503.325 573.35 503.232 573.115 503.232H296.715C296.48 503.232 296.254 503.325 296.088 503.491C295.922 503.657 295.829 503.882 295.829 504.116C295.829 504.351 295.922 504.575 296.088 504.741C296.254 504.907 296.48 505 296.715 505Z" fill="#CCCCCC"/>
<path d="M120.733 293.997V294.375H120.997C120.902 294.254 120.814 294.128 120.733 293.997ZM122.766 133.581C104.316 157.532 94.3293 186.906 94.3643 217.119C94.3685 221.72 94.5943 226.256 95.0418 230.727C95.1107 231.495 95.1909 232.263 95.2947 233.02C97.8582 255.254 105.861 276.517 118.597 294.937C119.091 295.659 119.596 296.369 120.102 297.08C125.585 304.753 131.844 311.843 138.781 318.237C194.627 369.711 281.703 366.249 333.27 310.505C334.062 309.668 334.821 308.819 335.567 307.971C356.674 284.11 368.816 253.668 369.916 221.856C371.016 190.043 361.005 158.838 341.596 133.581C341.01 132.813 340.414 132.045 339.794 131.288C338.434 129.58 337.026 127.906 335.567 126.267C334.821 125.419 334.062 124.57 333.27 123.734C320.395 109.794 304.764 98.6715 287.365 91.0669C269.965 83.4623 251.175 79.5413 232.181 79.5514C230.861 79.5514 229.551 79.5743 228.242 79.6087C227.369 79.6316 226.496 79.666 225.624 79.7119C206.073 80.6383 186.946 85.7182 169.519 94.6124C152.093 103.507 136.768 116.01 124.569 131.288C123.949 132.045 123.352 132.813 122.766 133.581ZM120.997 294.375C120.902 294.254 120.814 294.128 120.733 293.997V294.375H120.997Z" fill="white"/>
<path d="M119.768 292.586L120.158 291.795L149.399 233.02V233.008L150.536 230.727V230.715L198.84 133.581V133.57L199.977 131.288L199.989 131.277L224.452 82.0621L225.623 79.7119C226.496 79.6661 227.369 79.6317 228.241 79.6088L227.082 81.9474L202.55 131.277V131.288L201.413 133.57V133.581L151.845 233.249L151.834 233.26L122.593 292.082L121.445 294.375L121.261 294.753L120.101 297.08C119.595 296.37 119.09 295.659 118.597 294.937L119.768 292.586Z" fill="#3F3D56"/>
<path d="M151.351 230.727V233.02H95.2939C95.1902 232.263 95.11 231.495 95.041 230.727H151.351Z" fill="#3F3D56"/>
<path d="M238.467 248.612V246.319H294.524C294.628 247.076 294.708 247.844 294.777 248.612H238.467Z" fill="#3F3D56"/>
<path d="M285.354 240.624H287.651V296.58C286.893 296.683 286.124 296.763 285.354 296.832V240.624Z" fill="#3F3D56"/>
<path d="M341.596 133.581C341.01 132.813 340.413 132.045 339.793 131.288H335.566V126.267C334.82 125.419 334.062 124.57 333.27 123.734V131.288H124.569C123.948 132.045 123.352 132.813 122.766 133.581H333.27V310.505C334.062 309.668 334.82 308.819 335.567 307.971V133.581H341.596Z" fill="#3F3D56"/>
<path d="M334.418 292.081H120.73V294.373H334.418V292.081Z" fill="#3F3D56"/>
<path d="M120.733 293.997V294.375H120.997C120.902 294.254 120.814 294.128 120.733 293.997ZM122.766 133.581C104.316 157.532 94.3293 186.906 94.3643 217.119C94.3685 221.72 94.5943 226.256 95.0418 230.727C95.1107 231.495 95.1909 232.263 95.2947 233.02C97.8582 255.254 105.861 276.517 118.597 294.937C119.091 295.659 119.596 296.369 120.102 297.08C125.585 304.753 131.844 311.843 138.781 318.237C194.627 369.711 281.703 366.249 333.27 310.505C334.062 309.668 334.821 308.819 335.567 307.971C356.674 284.11 368.816 253.668 369.916 221.856C371.016 190.043 361.005 158.838 341.596 133.581C341.01 132.813 340.414 132.045 339.794 131.288C338.434 129.58 337.026 127.906 335.567 126.267C334.821 125.419 334.062 124.57 333.27 123.734C320.395 109.794 304.764 98.6715 287.365 91.0669C269.965 83.4623 251.175 79.5413 232.181 79.5514C230.861 79.5514 229.551 79.5743 228.242 79.6087C227.369 79.6316 226.496 79.666 225.624 79.7119C206.073 80.6383 186.946 85.7182 169.519 94.6124C152.093 103.507 136.768 116.01 124.569 131.288C123.949 132.045 123.352 132.813 122.766 133.581ZM97.6028 233.02C97.4997 232.263 97.4195 231.495 97.3387 230.727C93.838 195.907 103.989 161.088 125.66 133.581C126.269 132.813 126.878 132.045 127.509 131.288C139.379 116.837 154.123 105 170.809 96.5271C187.495 88.054 205.761 83.1285 224.452 82.0619C225.325 82.0161 226.198 81.9702 227.082 81.9473C228.77 81.8785 230.47 81.8441 232.181 81.8441C251.28 81.8329 270.164 85.8628 287.589 93.6681C305.013 101.474 320.583 112.877 333.27 127.127C334.062 127.998 334.832 128.869 335.567 129.764C336.015 130.268 336.439 130.772 336.853 131.288C337.485 132.045 338.093 132.813 338.702 133.581C358.013 158.054 368.25 188.439 367.679 219.586C367.107 250.733 355.762 280.724 335.567 304.475C334.832 305.369 334.062 306.24 333.27 307.111C326.277 314.953 318.393 321.955 309.776 327.975C248.528 370.764 164.127 355.89 121.261 294.753C121.169 294.627 121.078 294.501 120.997 294.375C120.902 294.254 120.814 294.128 120.733 293.997C120.4 293.526 120.079 293.056 119.769 292.586C107.705 274.791 100.103 254.361 97.6028 233.02ZM120.997 294.375C120.902 294.254 120.814 294.128 120.733 293.997V294.375H120.997Z" fill="#CCCCCC"/>
<path d="M390.906 364.877H253.409C251.727 364.875 250.116 364.207 248.927 363.021C247.738 361.834 247.069 360.225 247.067 358.547V291.672C247.069 289.994 247.738 288.385 248.927 287.198C250.116 286.012 251.727 285.344 253.409 285.342H390.906C392.587 285.344 394.199 286.012 395.387 287.198C396.576 288.385 397.245 289.994 397.247 291.672V358.547C397.245 360.225 396.576 361.834 395.387 363.021C394.199 364.207 392.587 364.875 390.906 364.877Z" fill="#CACACA"/>
<path d="M330.341 359.496C300.229 359.496 268.829 359.208 257.114 359.022C255.572 358.99 254.104 358.359 253.023 357.261C251.943 356.164 251.334 354.688 251.328 353.149V291.677C251.329 291.126 251.548 290.598 251.938 290.207C252.328 289.817 252.857 289.597 253.409 289.595H390.902C391.454 289.596 391.983 289.815 392.374 290.204C392.765 290.593 392.985 291.12 392.987 291.671V333.379C392.961 340.188 390.263 346.715 385.472 351.56C380.681 356.406 374.178 359.184 367.358 359.298C356.439 359.44 343.51 359.496 330.341 359.496Z" fill="#E4E4E4"/>
<path d="M376.71 328.024H264.835C264.109 328.023 263.402 327.799 262.809 327.382C262.216 326.964 261.767 326.375 261.523 325.693L248.86 290.233C248.671 289.703 248.612 289.137 248.689 288.58C248.765 288.023 248.973 287.493 249.298 287.033C249.622 286.574 250.051 286.199 250.551 285.94C251.05 285.681 251.605 285.545 252.168 285.544L392.013 285.349H392.018C392.6 285.349 393.173 285.493 393.685 285.769C394.198 286.044 394.634 286.442 394.954 286.927C395.274 287.412 395.469 287.969 395.521 288.547C395.573 289.126 395.48 289.708 395.25 290.242L379.942 325.897C379.671 326.529 379.221 327.067 378.646 327.445C378.072 327.824 377.398 328.025 376.71 328.024Z" fill="#CACACA"/>
<path d="M297.261 352.601H258.683C257.734 352.599 256.823 352.222 256.152 351.551C255.481 350.88 255.104 349.971 255.104 349.023C255.104 348.075 255.481 347.166 256.152 346.495C256.823 345.825 257.734 345.447 258.683 345.446H297.261C298.211 345.447 299.121 345.825 299.792 346.495C300.463 347.166 300.84 348.075 300.84 349.023C300.84 349.971 300.463 350.88 299.792 351.551C299.121 352.222 298.211 352.599 297.261 352.601Z" fill="#CACACA"/>
<path d="M321.949 336.769C326.787 336.769 330.709 332.854 330.709 328.024C330.709 323.195 326.787 319.28 321.949 319.28C317.111 319.28 313.188 323.195 313.188 328.024C313.188 332.854 317.111 336.769 321.949 336.769Z" fill="#3F3D56"/>
<path d="M44.2842 18.0819C65.8097 2.95029 92.4754 -3.02605 118.415 1.46758C144.355 5.9612 167.444 20.5567 182.603 42.0432C214.17 86.7865 245.845 204.115 223.486 272.084C156.793 201.765 54.3334 194.459 20.2795 156.15C-16.1083 115.217 -0.540141 49.5917 44.2842 18.0819Z" fill="#A6CE2E"/>
<path d="M102.792 119.4C120.672 119.4 135.166 104.932 135.166 87.0842C135.166 69.2366 120.672 54.7682 102.792 54.7682C84.9116 54.7682 70.417 69.2366 70.417 87.0842C70.417 104.932 84.9116 119.4 102.792 119.4Z" fill="white"/>
<path d="M250.854 307.278C262.565 307.278 272.059 297.801 272.059 286.112C272.059 274.422 262.565 264.945 250.854 264.945C239.143 264.945 229.649 274.422 229.649 286.112C229.649 297.801 239.143 307.278 250.854 307.278Z" fill="#A6CE2E"/>
<path opacity="0.2" d="M68.155 79.6276C66.0113 83.2924 64.6118 87.3427 64.0363 91.5473C63.4608 95.752 63.7206 100.029 64.8009 104.133C65.8811 108.238 67.7607 112.089 70.3323 115.469C72.9039 118.848 76.1171 121.689 79.7885 123.829C83.4599 125.968 87.5176 127.365 91.7299 127.94C95.9422 128.514 100.227 128.255 104.338 127.177C108.45 126.098 112.309 124.222 115.695 121.655C119.08 119.088 121.926 115.881 124.07 112.216C118.291 117.276 110.897 120.119 103.21 120.234C95.5241 120.35 88.0474 117.731 82.1186 112.847C76.1898 107.963 72.1958 101.132 70.8515 93.577C69.5072 86.022 70.9004 78.236 74.7816 71.6126C72.154 73.9099 69.9162 76.6166 68.155 79.6276Z" fill="#231F20"/>
<path opacity="0.2" d="M20.219 156.303C54.2729 194.611 156.733 201.918 223.425 272.236C225.507 265.805 227.109 259.229 228.219 252.562C161.559 188.637 64.8037 180.558 31.9014 143.545C2.45338 110.419 7.03744 61.1227 33.614 26.8223C-2.83535 60.5485 -13.1269 118.791 20.219 156.303Z" fill="#231F20"/>
<path d="M443.504 291.652L429.756 287.472C423.771 294.674 418.809 315.539 418.809 315.539L399.992 346.061C398.985 346.538 398.122 347.271 397.489 348.187C396.857 349.103 396.477 350.17 396.388 351.279C396.3 352.388 396.505 353.501 396.985 354.505C397.464 355.51 398.2 356.371 399.118 357.001C400.037 357.632 401.105 358.009 402.217 358.097C403.328 358.184 404.442 357.977 405.448 357.498C406.454 357.018 407.316 356.282 407.946 355.365C408.577 354.447 408.954 353.38 409.04 352.271L437.518 317.76L443.504 291.652Z" fill="#FFB6B6"/>
<path d="M443.241 294.983L445.782 274.208L440.087 264.714C438.962 262.854 437.338 261.345 435.399 260.358C433.461 259.371 431.284 258.945 429.115 259.128C426.177 259.396 423.45 260.767 421.487 262.965C419.523 265.163 418.468 268.023 418.536 270.967C418.75 279.896 420.159 291.187 425.659 294.273L425.714 294.305L443.241 294.983Z" fill="#A6CE2E"/>
<path d="M482.08 482.702L473.836 486.673L454.562 456.821L466.731 450.958L482.08 482.702Z" fill="#FFB6B6"/>
<path d="M486.523 491.146L461.17 503.362L461.015 503.042C459.752 500.43 459.58 497.424 460.537 494.685C461.494 491.946 463.502 489.698 466.119 488.437L469.055 482.698L479.391 482.042L481.605 480.976L486.523 491.146Z" fill="#2F2E41"/>
<path d="M420.711 493.83L411.556 493.829L407.201 458.581L420.713 458.582L420.711 493.83Z" fill="#FFB6B6"/>
<path d="M421.034 503.362L392.882 503.361V503.006C392.882 500.105 394.037 497.323 396.091 495.272C398.146 493.221 400.933 492.068 403.839 492.068H403.84L408.982 488.174L418.577 492.069L421.034 492.069L421.034 503.362Z" fill="#2F2E41"/>
<path d="M411.638 330.356L401.147 402.567L404.002 412.069L400.256 418.799L405.757 469.448L403.524 474.356L409.764 478.197H422.46L423.134 424.694L426.27 416.839V412.509L432.655 379.885L434.128 430.673L436.166 434.598C443.759 451.793 453.986 457.423 461.217 470.276L473.914 463.411L473.648 458.291C476.199 457.002 469.818 453.234 469.205 450.447L468.095 445.456L460.688 430.141L460.405 424.748L462.432 388.066L461.479 338.669L444.824 325.957L411.638 330.356Z" fill="#2F2E41"/>
<path d="M428.122 242.768C437.232 242.768 444.617 235.396 444.617 226.302C444.617 217.208 437.232 209.836 428.122 209.836C419.011 209.836 411.626 217.208 411.626 226.302C411.626 235.396 419.011 242.768 428.122 242.768Z" fill="#FFB6B6"/>
<path d="M403.749 361.507L403.508 361.423L406.701 351.066C406.282 349.731 406.202 348.313 406.468 346.94C406.734 345.567 407.338 344.282 408.225 343.199C407.709 342.307 405.58 338.094 409.047 334.514C408.839 333.471 407.797 327.293 411.435 324.273C411.435 324.273 418.494 270.865 422.454 256.758C422.568 255.726 421.641 247.3 426.967 246.969C429.776 246.795 433.991 246.529 440.316 246.122C441.133 246.063 441.612 247.441 442.338 249.683C442.829 251.199 440.302 253.272 440.913 253.238L440.956 253.235L440.998 253.246C446.899 254.825 452.075 258.384 455.657 263.325C459.238 268.266 461.006 274.286 460.663 280.375L458.783 312.287C459.068 313.57 465.057 349.961 463.491 353.867C462.603 356.083 464.118 357.463 465.223 358.471C465.793 358.991 466.204 359.366 466.147 359.776C466.124 359.889 466.073 359.994 465.998 360.082C465.924 360.17 465.828 360.237 465.72 360.278C464.72 360.778 465.273 364.201 465.857 366.242L465.916 366.451L465.723 366.55C465.5 366.664 447.599 358.469 425.853 358.469C417.656 358.469 412.918 364.7 403.749 361.507Z" fill="#A6CE2E"/>
<path d="M441.194 236.425C441.023 236.337 440.872 236.214 440.751 236.064C440.631 235.914 440.543 235.741 440.494 235.555L440.259 234.599L440.982 235.351C441.368 235.031 441.664 234.615 441.839 234.145C442.013 233.675 442.06 233.168 441.976 232.674C441.891 232.18 441.677 231.717 441.356 231.331C441.034 230.946 440.617 230.652 440.146 230.48C439.828 230.374 439.501 230.294 439.17 230.243C438.823 230.187 438.482 230.105 438.148 229.997C437.368 229.66 436.695 229.116 436.202 228.425C435.709 227.733 435.415 226.92 435.352 226.074C435.244 224.581 435.41 223.082 435.841 221.649C428.562 222.765 421.14 222.542 413.942 220.992C412.833 220.758 411.77 220.341 410.799 219.758C409.021 218.706 407.541 217.219 406.498 215.439C406.36 215.198 406.303 214.92 406.335 214.646C406.366 214.371 406.485 214.113 406.674 213.91C406.806 213.769 406.965 213.656 407.141 213.578C407.318 213.5 407.509 213.46 407.702 213.458L407.438 212.747C407.356 212.524 407.334 212.284 407.375 212.05C407.416 211.817 407.519 211.598 407.672 211.417C407.825 211.236 408.024 211.098 408.247 211.018C408.471 210.939 408.712 210.919 408.946 210.963L409.879 211.137L409.79 210.518C409.756 210.287 409.783 210.052 409.869 209.835C409.954 209.618 410.095 209.427 410.277 209.281C410.459 209.135 410.676 209.038 410.907 209.001C411.138 208.965 411.374 208.988 411.592 209.071C411.793 209.146 412.007 209.177 412.22 209.161C412.434 209.146 412.641 209.084 412.829 208.981C413.016 208.878 413.179 208.736 413.306 208.564C413.433 208.392 413.521 208.194 413.564 207.985L413.885 206.429L413.917 206.346C415.497 203.72 418.532 201.81 422.243 201.107C425.553 200.481 428.932 200.798 432.201 201.103C433.587 201.131 434.948 201.475 436.182 202.107C436.74 202.429 437.198 202.899 437.505 203.465C437.811 204.031 437.954 204.671 437.917 205.313C441.136 204.325 444.589 206.293 446.297 208.773C448.327 211.722 448.655 215.422 448.714 218.315C448.854 225.155 447.442 230.752 444.519 234.949C444.1 235.661 443.466 236.224 442.708 236.555C442.515 236.62 442.313 236.652 442.109 236.652C441.79 236.653 441.476 236.575 441.194 236.425Z" fill="#2F2E41"/>
<path d="M441.788 301.257L429.68 293.528C421.97 298.851 411.55 317.605 411.55 317.605L385.178 341.924C384.08 342.112 383.05 342.586 382.193 343.297C381.336 344.009 380.682 344.933 380.297 345.978C379.912 347.022 379.809 348.149 379.999 349.245C380.189 350.341 380.665 351.369 381.378 352.223C382.092 353.078 383.019 353.729 384.066 354.113C385.112 354.496 386.241 354.597 387.339 354.406C388.438 354.216 389.466 353.739 390.321 353.026C391.176 352.312 391.828 351.386 392.211 350.341L428.964 324.784L441.788 301.257Z" fill="#FFB6B6"/>
<path d="M440.633 304.394L448.697 285.075L445.78 274.398C445.2 272.305 444.044 270.414 442.444 268.942C440.845 267.469 438.864 266.472 436.726 266.064C433.825 265.53 430.828 266.116 428.343 267.703C425.858 269.29 424.069 271.76 423.339 274.614C421.13 283.269 419.434 294.521 423.895 298.974L423.94 299.019L440.633 304.394Z" fill="#A6CE2E"/>
</g>
<defs>
<clipPath id="clip0_2441_10077">
<rect width="574" height="505" fill="white"/>
</clipPath>
</defs>
</svg>
